# xmcd
#
# Track frame offsets: 
#        150
#        21926
#        40904
#        54263
#        72495
#        99728
#        118387
#        136527
#        154011
#        175506
#        193816
#        210646
#        225209
#        243711
#        261048
#        278243
#
# Disc length: 3985 seconds
#
# Revision: 0
# Processed by: cddbd v1.5.2PL0 Copyright (c) Steve Scherf et al.
# Submitted via: ExactAudioCopy v1.0b3
#
DISCID=de0f8f10
DTITLE=前川清 - 前川清大全集 Disc 1 TECE-3211-2
DYEAR=1900
DGENRE=Blues
TTITLE0=君が恋しくて
TTITLE1=長崎は今日も雨だった
TTITLE2=そして、神戸
TTITLE3=東京砂漠
TTITLE4=ひまわり 
TTITLE5=大阪
TTITLE6=男と女の破片 
TTITLE7=噂の女 
TTITLE8=海鳴り 
TTITLE9=雪列車
TTITLE10=この愛に生きて 
TTITLE11=中の島ブルース 
TTITLE12=おいしい水 
TTITLE13=逢わずに愛して
TTITLE14=恋唄 
TTITLE15=愛よ静かに眠れ 
EXTD=
EXTT0=
EXTT1=
EXTT2=
EXTT3=
EXTT4=
EXTT5=
EXTT6=
EXTT7=
EXTT8=
EXTT9=
EXTT10=
EXTT11=
EXTT12=
EXTT13=
EXTT14=
EXTT15=
PLAYORDER=
